<?xml version="1.0" encoding="utf-8"?>
<!DOCTYPE svg PUBLIC "-//W3C//DTD SVG 1.0//EN" "http://www.w3.org/TR/2001/REC-SVG-20010904/DTD/svg10.dtd">
<svg version="1.0" xmlns="http://www.w3.org/2000/svg" width="447px" height="447px" viewBox="0 0 447 447" preserveAspectRatio="xMidYMid meet">
 <g fill="#000000">
  <path d="M115.24 420.55 c-4.28 -1.96 -7.07 -5.46 -8.29 -10.43 -0.70 -2.97 -0.13 -8.69 1.70 -16.15 0.22 -0.96 0.70 -3.10 1.09 -4.80 1.27 -5.50 1.53 -6.42 4.37 -17.68 3.67 -14.41 3.75 -14.71 3.75 -15.54 0 -0.39 0.26 -1.31 0.57 -2.05 0.57 -1.31 3.06 -10.78 3.80 -14.49 0.17 -0.96 0.65 -2.92 1 -4.37 0.39 -1.44 1 -3.97 1.40 -5.67 0.39 -1.66 0.87 -3.45 1.05 -3.93 0.22 -0.48 0.70 -2.36 1.13 -4.15 0.39 -1.79 1.13 -4.63 1.57 -6.33 0.48 -1.66 1.05 -3.75 1.27 -4.58 0.22 -0.83 0.92 -3.89 1.53 -6.77 0.61 -2.88 1.40 -6.11 1.75 -7.20 0.35 -1.09 1 -3.45 1.44 -5.24 0.79 -3.10 0.87 -3.27 2.10 -3.40 0.70 -0.09 4.32 0.65 8.03 1.66 3.71 0.96 7.46 1.96 8.29 2.14 3.40 0.83 10.35 2.71 11.35 3.06 0.61 0.22 1.62 0.52 2.31 0.65 1.09 0.26 1.18 0.44 1.18 2.58 -0.04 2.31 -0.31 3.71 -2.36 11.22 -1.05 3.93 -2.58 9.69 -6.07 23.14 -0.87 3.23 -1.83 6.90 -2.23 8.08 -0.35 1.22 -1.35 4.93 -2.27 8.29 -0.87 3.36 -1.75 6.81 -2.01 7.64 -0.22 0.83 -0.57 2.23 -0.79 3.06 -0.22 0.83 -0.65 2.62 -1 3.93 -0.39 1.31 -1.05 3.89 -1.53 5.67 -0.48 1.79 -1.22 4.45 -1.62 5.89 -0.44 1.44 -1 3.71 -1.35 5.02 -0.31 1.31 -0.79 3.19 -1.05 4.15 -0.26 0.96 -0.65 2.44 -0.87 3.27 -0.35 1.53 -1.70 6.64 -3.49 13.31 -0.52 1.92 -1.13 4.19 -1.31 5.02 -0.96 4.02 -1.35 5.11 -2.62 7.68 -1.48 3.01 -3.75 5.28 -7.20 7.07 -1.92 1 -2.79 1.13 -7.20 1.27 -4.58 0.13 -5.24 0.04 -7.42 -1z"/>
  <path d="M225.46 293.78 c-15.45 -0.65 -35.93 -3.54 -48.45 -6.81 -1.44 -0.35 -3.32 -0.83 -4.15 -1.05 -3.71 -0.87 -15.98 -4.93 -20.30 -6.68 -20.65 -8.42 -33.18 -16.37 -46.27 -29.29 -8.38 -8.34 -15.71 -18.99 -19.25 -27.98 -0.65 -1.66 -1.22 -3.14 -1.31 -3.23 -0.09 -0.09 -2.75 1.70 -5.94 3.93 -6.72 4.67 -10.69 8.42 -12.27 11.57 -1.05 2.10 -3.40 9.56 -7.12 22.66 -0.39 1.44 -0.87 3.01 -1.05 3.49 -0.22 0.48 -0.87 2.84 -1.53 5.24 -0.65 2.40 -1.35 4.76 -1.53 5.24 -0.22 0.48 -0.48 1.35 -0.57 1.96 -0.57 3.14 -3.80 12.31 -4.93 13.97 -1.57 2.36 -5.02 5.06 -7.38 5.81 -0.96 0.26 -3.75 0.52 -6.20 0.48 -3.89 -0.04 -4.71 -0.17 -6.85 -1.22 -3.19 -1.57 -5.67 -4.45 -6.64 -7.60 -0.92 -3.19 -0.65 -9.17 0.61 -13.40 0.48 -1.66 1.22 -4.32 1.62 -5.89 0.44 -1.57 1.53 -5.37 2.49 -8.51 0.92 -3.10 1.92 -6.46 2.18 -7.42 0.26 -0.96 0.74 -2.62 1.09 -3.71 0.35 -1.09 1.05 -3.45 1.48 -5.24 0.48 -1.79 1.22 -4.37 1.66 -5.67 0.70 -2.01 1.83 -5.81 3.54 -11.35 0.17 -0.61 0.52 -1.88 0.79 -2.84 0.83 -3.01 2.75 -9.52 3.62 -12.05 0.48 -1.31 0.83 -2.75 0.83 -3.14 0 -0.44 0.17 -1.09 0.39 -1.53 0.22 -0.39 0.74 -1.83 1.09 -3.14 0.39 -1.31 1.09 -3.67 1.57 -5.24 0.44 -1.57 1.35 -4.58 1.96 -6.77 0.65 -2.14 1.40 -4.71 1.75 -5.67 0.31 -0.96 0.74 -2.53 1.05 -3.49 0.26 -0.96 0.87 -3.10 1.35 -4.80 0.52 -1.66 1.09 -3.75 1.31 -4.58 0.57 -2.05 2.49 -8.64 3.75 -12.66 0.57 -1.79 1.05 -3.58 1.05 -3.93 0 -0.39 0.17 -0.87 0.35 -1.09 0.22 -0.26 0.61 -1.53 0.92 -2.84 0.31 -1.31 0.74 -2.97 0.96 -3.71 0.57 -1.96 2.53 -8.69 3.75 -12.88 0.61 -2.05 1.27 -4.10 1.44 -4.58 0.22 -0.48 0.61 -1.83 0.87 -3.06 0.31 -1.18 0.79 -2.97 1.09 -3.93 0.31 -0.96 0.96 -3.10 1.48 -4.80 0.48 -1.66 1.35 -4.63 1.92 -6.55 0.61 -1.92 1.31 -4.28 1.57 -5.24 0.61 -2.23 1.48 -5.33 2.58 -8.95 0.48 -1.57 1.18 -4.02 1.57 -5.46 0.44 -1.44 0.92 -3.10 1.13 -3.71 0.17 -0.61 0.57 -1.96 0.87 -3.06 0.31 -1.09 0.83 -2.75 1.13 -3.71 0.35 -0.96 1.27 -4.28 2.10 -7.42 0.83 -3.10 1.79 -6.64 2.14 -7.86 0.39 -1.18 1.66 -5.63 2.88 -9.82 1.22 -4.19 2.79 -9.52 3.49 -11.79 0.74 -2.27 1.44 -4.71 1.62 -5.46 0.52 -2.36 2.66 -6.50 4.23 -8.29 4.37 -5.02 14.27 -6.50 20.25 -3.01 2.40 1.40 4.71 4.15 5.54 6.64 0.79 2.18 0.96 9.43 0.31 11.09 -0.22 0.57 -0.74 2.27 -1.13 3.84 -0.39 1.57 -1.44 5.15 -2.27 7.99 -0.83 2.84 -1.79 6.15 -2.14 7.42 -0.35 1.27 -0.83 2.88 -1.05 3.58 -0.22 0.74 -0.57 2.01 -0.83 2.84 -0.22 0.83 -1.09 3.97 -1.92 6.98 -0.87 3.01 -2.05 7.25 -2.71 9.39 -1.22 4.23 -1.75 5.98 -2.36 8.21 -0.83 2.92 -4.63 15.89 -6.85 23.22 -0.96 3.27 -4.98 17.16 -6.72 23.35 -0.44 1.57 -1.70 5.98 -2.84 9.82 -1.96 6.72 -2.44 8.34 -3.06 10.69 -0.17 0.61 -0.70 2.36 -1.18 3.93 -0.48 1.57 -1.05 3.45 -1.22 4.15 -0.65 2.27 -2.10 7.29 -3.06 10.65 -0.48 1.75 -0.83 3.27 -0.74 3.36 0.09 0.09 5.46 -3.32 11.92 -7.60 10 -6.59 15.85 -10.39 20.95 -13.62 0.57 -0.35 3.89 -2.53 7.38 -4.80 12.83 -8.42 47.97 -31.08 51.51 -33.22 7.42 -4.50 10.69 -5.54 16.20 -5.06 5.59 0.44 10.61 4.28 12.18 9.30 1.05 3.27 0.70 8.25 -0.79 11.57 -1.83 4.10 -3.71 5.59 -20.17 15.98 -8.73 5.50 -17.64 11.18 -25.97 16.63 -2.75 1.79 -5.98 3.89 -7.20 4.67 -2.84 1.79 -16.76 10.74 -20.82 13.40 -1.75 1.13 -3.49 2.23 -3.84 2.40 -0.35 0.22 -2.97 1.88 -5.76 3.80 -3.40 2.27 -5.15 3.67 -5.15 4.19 0 1.31 2.49 7.86 4.23 11.22 4.80 9.17 13.75 18.90 24.01 26.19 4.76 3.36 6.20 4.23 12.57 7.55 7.73 4.06 14.32 6.59 27.94 10.91 1.92 0.61 14.89 3.40 18.38 3.97 6.85 1.09 15.23 2.01 27.68 2.97 20.52 1.62 51.47 -0.92 70.06 -5.76 1.44 -0.39 4.32 -1.09 6.37 -1.57 2.05 -0.52 4.63 -1.22 5.67 -1.62 1.05 -0.39 3.10 -1.05 4.54 -1.48 3.80 -1.13 10.43 -3.58 14.19 -5.24 20.39 -8.86 33.48 -17.55 45.92 -30.47 9.82 -10.21 15.54 -20.30 18.29 -32.17 0.79 -3.36 0.79 -11.18 0 -13.75 -2.62 -8.73 -5.76 -13.36 -12.62 -18.86 -8.03 -6.42 -19.73 -9.95 -32.78 -9.95 -6.94 0 -18.73 1.31 -24.05 2.66 -0.83 0.17 -2.88 0.70 -4.58 1.09 -13.40 3.14 -28.99 9.39 -43.22 17.42 -19.47 11 -40.86 28.85 -58.06 48.45 -6.37 7.29 -9.65 11.26 -17.81 21.78 -3.36 4.37 -6.33 8.03 -6.59 8.21 -0.26 0.17 -1.09 0.35 -1.83 0.35 -1.70 0 -20.56 -5.19 -25.49 -7.03 -2.05 -0.74 -4.10 -1.48 -4.58 -1.57 -1.48 -0.44 -1.96 -1.05 -1.96 -2.53 0 -3.49 20.73 -28.94 38.24 -46.93 11.70 -12.05 23.53 -22.13 39.03 -33.35 4.50 -3.27 11.48 -7.77 18.55 -12 4.76 -2.88 19.95 -10.21 25.75 -12.48 5.33 -2.10 12.79 -4.63 18.33 -6.24 6.90 -2.01 7.99 -2.31 10.91 -2.97 3.89 -0.87 8.47 -1.66 16.15 -2.79 7.64 -1.13 27.33 -1.66 34.27 -0.92 16.06 1.66 27.94 5.72 38.85 13.18 11.39 7.81 19.95 19.99 23.48 33.35 2.66 10.17 2.92 24.23 0.57 34.92 -3.67 16.59 -14.45 34.22 -29.33 47.84 -8.73 7.99 -19.16 15.67 -28.55 21 -3.62 2.05 -16.54 8.64 -16.98 8.64 -0.13 0 -1.35 0.52 -2.75 1.13 -1.40 0.61 -2.92 1.27 -3.40 1.48 -0.48 0.17 -1.57 0.65 -2.40 1 -6.42 2.84 -20.43 7.42 -28.90 9.52 -14.71 3.62 -25.41 5.54 -36.14 6.50 -2.75 0.26 -6.98 0.65 -9.39 0.92 -5.94 0.57 -30.95 0.83 -40.60 0.39z"/>
 </g>
 <g fill="#ffffff">
  <path d="M0 223.50 l0 -223.50 223.50 0 223.50 0 0 223.50 0 223.50 -223.50 0 -223.50 0 0 -223.50z m128.56 195.48 c3.40 -1.79 5.72 -4.02 7.20 -7.07 1.27 -2.58 1.66 -3.67 2.62 -7.68 0.17 -0.83 0.79 -3.10 1.31 -5.02 1.79 -6.68 3.14 -11.79 3.49 -13.31 0.22 -0.83 0.61 -2.31 0.87 -3.27 0.26 -0.96 0.74 -2.84 1.05 -4.15 0.35 -1.31 0.92 -3.58 1.35 -5.02 0.39 -1.44 1.13 -4.10 1.62 -5.89 0.48 -1.79 1.13 -4.37 1.53 -5.67 0.35 -1.31 0.79 -3.10 1 -3.93 0.22 -0.83 0.57 -2.23 0.79 -3.06 0.26 -0.83 1.13 -4.28 2.01 -7.64 0.92 -3.36 1.92 -7.07 2.27 -8.29 0.39 -1.18 1.35 -4.85 2.23 -8.08 3.67 -14.10 5.02 -19.25 6.02 -22.92 1.62 -5.89 2.62 -10.61 2.31 -10.96 -0.17 -0.13 -0.92 -0.44 -1.75 -0.61 -0.79 -0.22 -3.71 -1 -6.46 -1.79 -2.75 -0.74 -5.72 -1.53 -6.55 -1.75 -0.83 -0.17 -4.45 -1.13 -8.08 -2.10 -3.58 -0.96 -6.68 -1.62 -6.81 -1.44 -0.13 0.17 -0.57 1.70 -1 3.36 -0.39 1.70 -1 3.93 -1.35 5.02 -0.35 1.09 -1.13 4.32 -1.75 7.20 -0.61 2.88 -1.31 5.94 -1.53 6.77 -0.22 0.83 -0.79 2.92 -1.27 4.58 -0.44 1.70 -1.18 4.54 -1.57 6.33 -0.44 1.79 -0.92 3.67 -1.13 4.15 -0.17 0.48 -0.65 2.27 -1.05 3.93 -0.39 1.70 -1 4.23 -1.40 5.67 -0.35 1.44 -0.83 3.40 -1 4.37 -0.74 3.71 -3.23 13.18 -3.80 14.49 -0.31 0.74 -0.57 1.66 -0.57 2.05 0 0.83 -0.09 1.13 -3.75 15.54 -2.84 11.26 -3.10 12.18 -4.37 17.68 -0.39 1.70 -0.87 3.84 -1.09 4.80 -1.79 7.38 -2.23 11.79 -1.48 14.36 1.40 4.63 3.97 7.73 8.08 9.65 2.10 0.96 2.88 1.09 6.11 0.96 2.97 -0.13 4.15 -0.39 5.89 -1.27z m136.33 -126.94 c2.36 -0.22 6.50 -0.61 9.25 -0.87 8.82 -0.79 15.19 -1.83 25.32 -4.06 5.63 -1.22 6.77 -1.48 10.69 -2.44 8.25 -2.01 22.52 -6.68 29.03 -9.52 0.83 -0.35 1.92 -0.83 2.40 -1 0.48 -0.22 2.01 -0.87 3.40 -1.48 1.40 -0.61 2.62 -1.13 2.75 -1.13 0.44 0 13.36 -6.59 16.98 -8.64 13.10 -7.42 27.11 -18.60 36.76 -29.33 4.28 -4.71 10.91 -14.27 13.97 -20.08 3.97 -7.55 6.98 -16.72 8.03 -24.45 2.23 -16.46 -0.74 -31.47 -8.69 -43.65 -3.14 -4.89 -5.24 -7.42 -9.21 -11.26 -6.98 -6.72 -17.16 -12.40 -27.33 -15.37 -11.18 -3.23 -19.12 -4.10 -33.61 -3.75 -11.61 0.31 -22.26 1.57 -32.74 3.93 -2.92 0.65 -4.02 0.96 -10.91 2.97 -11.87 3.45 -21.04 7.03 -32.30 12.57 -8.51 4.19 -11.09 5.63 -18.33 10.13 -12.14 7.60 -28.07 19.69 -38.41 29.12 -16.06 14.71 -33.44 34.14 -46.93 52.43 -4.10 5.54 -4.28 6.15 -2.05 6.68 0.52 0.09 2.62 0.83 4.67 1.57 4.85 1.83 23.88 7.07 24.58 6.77 0.26 -0.13 2.18 -2.40 4.23 -5.11 20.08 -26.37 35.71 -42.74 55.05 -57.71 21.13 -16.37 44.48 -27.98 66.53 -33.13 1.70 -0.39 3.75 -0.92 4.58 -1.09 5.67 -1.44 17.24 -2.66 25.36 -2.66 11.35 0 18.29 1.40 26.80 5.46 8.51 4.06 15.41 11.09 18.25 18.60 2.05 5.41 2.27 6.55 2.27 12.62 0 7.07 -0.57 9.91 -3.49 17.68 -4.58 12.14 -15.71 25.32 -30.77 36.54 -11.57 8.56 -30.12 17.77 -44.74 22.18 -1.44 0.44 -3.49 1.09 -4.54 1.48 -1.05 0.39 -3.62 1.09 -5.67 1.62 -2.05 0.48 -4.93 1.18 -6.37 1.57 -14.75 3.84 -36.49 6.24 -56.75 6.24 -13.53 0 -30.56 -1.35 -43.61 -3.45 -3.49 -0.57 -16.46 -3.36 -18.38 -3.97 -15.93 -5.02 -23.88 -8.34 -34.27 -14.32 -9.12 -5.24 -19.99 -15.06 -25.89 -23.35 -4.71 -6.64 -8.51 -15.06 -8.73 -19.43 l-0.09 -1.92 5.33 -3.62 c2.92 -1.96 5.54 -3.71 5.89 -3.89 0.31 -0.17 2.01 -1.22 3.75 -2.36 4.02 -2.62 17.98 -11.61 20.82 -13.40 1.22 -0.79 4.45 -2.88 7.20 -4.67 8.34 -5.46 17.24 -11.13 25.97 -16.63 16.33 -10.30 18.33 -11.87 20.08 -15.80 2.27 -5.02 1.66 -9.78 -1.62 -13.53 -3.45 -3.93 -7.64 -5.46 -12.62 -4.63 -2.97 0.48 -5.11 1.44 -10.65 4.80 -3.54 2.14 -38.68 24.79 -51.51 33.22 -3.49 2.27 -6.81 4.45 -7.38 4.80 -4.98 3.10 -15.54 10 -25.14 16.33 -8.29 5.50 -11.61 7.51 -11.70 7.03 -0.09 -0.39 0.35 -2.31 0.92 -4.28 1.09 -3.49 2.31 -7.68 3.67 -12.53 0.39 -1.31 0.96 -3.27 1.31 -4.37 0.57 -1.75 1.05 -3.40 2.31 -8.08 0.17 -0.70 1.27 -4.45 2.40 -8.29 1.13 -3.84 2.40 -8.25 2.84 -9.82 1.75 -6.20 5.76 -20.08 6.72 -23.35 2.23 -7.33 6.02 -20.30 6.85 -23.22 0.61 -2.23 1.13 -3.97 2.36 -8.21 0.65 -2.14 1.83 -6.37 2.71 -9.39 1.79 -6.50 2.18 -7.86 2.75 -9.69 0.22 -0.79 0.70 -2.44 1.05 -3.71 0.35 -1.27 1.31 -4.58 2.14 -7.42 0.83 -2.84 1.88 -6.42 2.27 -7.99 0.39 -1.57 0.92 -3.27 1.13 -3.84 0.61 -1.57 0.48 -6.29 -0.31 -8.47 -1.31 -3.93 -5.11 -7.16 -9.60 -8.21 -4.37 -1 -10.56 1.09 -13.58 4.58 -1.57 1.79 -3.71 5.94 -4.23 8.29 -0.17 0.74 -0.87 3.19 -1.62 5.46 -0.70 2.27 -2.27 7.60 -3.49 11.79 -1.22 4.19 -2.49 8.64 -2.88 9.82 -0.35 1.22 -1.31 4.76 -2.14 7.86 -0.83 3.14 -1.75 6.46 -2.10 7.42 -0.31 0.96 -0.83 2.62 -1.13 3.71 -0.31 1.09 -0.70 2.44 -0.87 3.06 -0.22 0.61 -0.70 2.27 -1.13 3.71 -0.39 1.44 -1.09 3.89 -1.57 5.46 -1.09 3.62 -1.96 6.72 -2.58 8.95 -0.26 0.96 -0.96 3.32 -1.57 5.24 -0.57 1.92 -1.44 4.89 -1.92 6.55 -0.52 1.70 -1.18 3.84 -1.48 4.80 -0.31 0.96 -0.79 2.75 -1.09 3.93 -0.26 1.22 -0.65 2.58 -0.87 3.06 -0.17 0.48 -0.83 2.53 -1.44 4.58 -1.22 4.19 -3.19 10.91 -3.75 12.88 -0.22 0.74 -0.65 2.40 -0.96 3.71 -0.31 1.31 -0.70 2.58 -0.92 2.79 -0.17 0.26 -0.35 0.74 -0.35 1.13 0 0.35 -0.48 2.14 -1.05 3.93 -1.27 4.02 -3.19 10.61 -3.75 12.66 -0.22 0.83 -0.79 2.92 -1.31 4.58 -0.48 1.70 -1.09 3.84 -1.35 4.80 -0.31 0.96 -0.74 2.53 -1.05 3.49 -0.35 0.96 -1.09 3.54 -1.75 5.67 -0.61 2.18 -1.53 5.19 -1.96 6.77 -0.48 1.57 -1.18 3.93 -1.57 5.24 -0.35 1.31 -0.87 2.75 -1.09 3.14 -0.22 0.44 -0.39 1.09 -0.39 1.53 0 0.39 -0.35 1.83 -0.83 3.14 -0.87 2.53 -2.79 9.04 -3.62 12.05 -0.26 0.96 -0.61 2.23 -0.79 2.84 -1.70 5.54 -2.84 9.34 -3.54 11.35 -0.44 1.31 -1.18 3.89 -1.66 5.67 -0.44 1.79 -1.13 4.15 -1.48 5.24 -0.35 1.09 -0.83 2.75 -1.09 3.71 -0.26 0.96 -1.27 4.32 -2.18 7.42 -0.96 3.14 -2.05 6.94 -2.49 8.51 -0.39 1.57 -1.09 4.15 -1.57 5.72 -2.01 6.77 -1.40 11.70 1.83 15.41 2.49 2.84 5.63 4.23 9.65 4.32 1.75 0.04 3.97 -0.17 4.93 -0.48 2.36 -0.70 5.81 -3.40 7.38 -5.76 1.13 -1.66 4.37 -10.83 4.93 -13.97 0.09 -0.61 0.35 -1.48 0.57 -1.96 0.17 -0.48 0.87 -2.84 1.53 -5.24 0.65 -2.40 1.31 -4.76 1.53 -5.24 0.17 -0.48 0.65 -2.05 1.05 -3.49 3.71 -13.10 6.07 -20.56 7.12 -22.66 1.53 -3.01 5.50 -6.81 11.48 -11 6.64 -4.67 8.64 -5.89 8.91 -5.50 0.09 0.17 0.83 1.88 1.57 3.80 3.75 9.52 10.87 19.95 19.43 28.42 13.10 12.92 25.62 20.87 46.27 29.29 4.32 1.75 16.59 5.81 20.30 6.68 0.83 0.22 2.71 0.70 4.15 1.05 12.53 3.27 33 6.15 48.45 6.81 9.30 0.44 32.17 0.17 38.11 -0.44z"/>
 </g>
</svg>